<svg xmlns="http://www.w3.org/2000/svg" xmlns:xlink="http://www.w3.org/1999/xlink" width="1080" zoomAndPan="magnify" viewBox="0 0 810 187.499995" height="250" preserveAspectRatio="xMidYMid meet" version="1.0"><defs><g/><clipPath id="c7a1c1c2f6"><rect x="0" width="417" y="0" height="101"/></clipPath><clipPath id="5368210269"><path d="M 560.589844 64 L 580 64 L 580 83 L 560.589844 83 Z M 560.589844 64 " clip-rule="nonzero"/></clipPath><clipPath id="09ae332238"><path d="M 601 14.652344 L 614 14.652344 L 614 54 L 601 54 Z M 601 14.652344 " clip-rule="nonzero"/></clipPath><clipPath id="8f0cdf1b1d"><path d="M 623 39 L 640.628906 39 L 640.628906 62 L 623 62 Z M 623 39 " clip-rule="nonzero"/></clipPath><clipPath id="c78acc0090"><path d="M 582 53 L 625 53 L 625 96.933594 L 582 96.933594 Z M 582 53 " clip-rule="nonzero"/></clipPath></defs><g transform="matrix(1, 0, 0, 1, 196, 73)"><g clip-path="url(#c7a1c1c2f6)"><g fill="#020202" fill-opacity="1"><g transform="translate(1.575081, 72.597062)"><g><path d="M 4.75 0 L 4.75 -40.5625 L 18.734375 -40.5625 L 18.734375 -36.296875 L 18.890625 -36.296875 C 22.523438 -39.929688 26.398438 -41.75 30.515625 -41.75 C 33.472656 -41.75 36.238281 -41.140625 38.8125 -39.921875 C 41.394531 -38.710938 43.347656 -36.84375 44.671875 -34.3125 C 48.785156 -39.269531 53.265625 -41.75 58.109375 -41.75 C 62.429688 -41.75 66.144531 -40.535156 69.25 -38.109375 C 72.363281 -35.679688 73.921875 -31.882812 73.921875 -26.71875 L 73.921875 0 L 59.921875 0 L 59.921875 -22.921875 C 59.921875 -25.085938 59.328125 -26.894531 58.140625 -28.34375 C 56.960938 -29.789062 55.1875 -30.515625 52.8125 -30.515625 C 50.757812 -30.515625 49.191406 -29.894531 48.109375 -28.65625 C 47.023438 -27.414062 46.429688 -25.925781 46.328125 -24.1875 L 46.328125 0 L 32.34375 0 L 32.34375 -22.921875 C 32.34375 -25.085938 31.75 -26.894531 30.5625 -28.34375 C 29.375 -29.789062 27.59375 -30.515625 25.21875 -30.515625 C 23.0625 -30.515625 21.441406 -29.84375 20.359375 -28.5 C 19.273438 -27.15625 18.734375 -25.5625 18.734375 -23.71875 L 18.734375 0 Z M 4.75 0 "/></g></g></g><g fill="#020202" fill-opacity="1"><g transform="translate(73.524917, 72.597062)"><g><path d="M 7.5 -5.015625 C 3.707031 -9.160156 1.8125 -14.234375 1.8125 -20.234375 C 1.8125 -26.242188 3.707031 -31.332031 7.5 -35.5 C 11.300781 -39.664062 16.128906 -41.75 21.984375 -41.75 C 27.359375 -41.75 31.785156 -40.0625 35.265625 -36.6875 L 35.265625 -40.5625 L 49.25 -40.5625 L 49.25 0 L 35.421875 0 L 35.421875 -4.578125 L 35.265625 -4.578125 C 31.785156 -0.734375 27.359375 1.1875 21.984375 1.1875 C 16.128906 1.1875 11.300781 -0.878906 7.5 -5.015625 Z M 19.40625 -27.125 C 17.59375 -25.332031 16.6875 -23.035156 16.6875 -20.234375 C 16.6875 -17.441406 17.554688 -15.160156 19.296875 -13.390625 C 21.035156 -11.628906 23.328125 -10.75 26.171875 -10.75 C 28.910156 -10.75 31.160156 -11.644531 32.921875 -13.4375 C 34.691406 -15.226562 35.578125 -17.492188 35.578125 -20.234375 C 35.578125 -23.035156 34.664062 -25.332031 32.84375 -27.125 C 31.03125 -28.914062 28.804688 -29.8125 26.171875 -29.8125 C 23.484375 -29.8125 21.226562 -28.914062 19.40625 -27.125 Z M 19.40625 -27.125 "/></g></g></g><g fill="#020202" fill-opacity="1"><g transform="translate(121.596574, 72.597062)"><g><path d="M 51.078125 -40.5625 L 31.78125 -21.1875 L 52.96875 0 L 34.953125 0 L 18.734375 -16.203125 L 18.734375 0 L 4.75 0 L 4.75 -68 L 18.734375 -68 L 18.734375 -26.40625 L 32.890625 -40.5625 Z M 51.078125 -40.5625 "/></g></g></g><g fill="#020202" fill-opacity="1"><g transform="translate(166.742737, 72.597062)"><g><path d="M 29.640625 0 L 20.15625 0 L -1.578125 -40.5625 L 14.546875 -40.5625 L 24.4375 -18.65625 L 34.15625 -40.5625 L 43.796875 -40.5625 L 53.53125 -18.65625 L 63.40625 -40.5625 L 79.53125 -40.5625 L 57.796875 0 L 48.3125 0 L 38.984375 -20.953125 Z M 29.640625 0 "/></g></g></g><g fill="#020202" fill-opacity="1"><g transform="translate(238.771637, 72.597062)"><g><path d="M 45.78125 -18.34375 L 16.359375 -18.34375 C 16.359375 -15.5 17.28125 -13.390625 19.125 -12.015625 C 20.976562 -10.648438 22.984375 -9.96875 25.140625 -9.96875 C 27.410156 -9.96875 29.203125 -10.269531 30.515625 -10.875 C 31.835938 -11.476562 33.34375 -12.675781 35.03125 -14.46875 L 45.140625 -9.40625 C 40.921875 -2.34375 33.910156 1.1875 24.109375 1.1875 C 17.992188 1.1875 12.75 -0.90625 8.375 -5.09375 C 4 -9.289062 1.8125 -14.335938 1.8125 -20.234375 C 1.8125 -26.140625 4 -31.203125 8.375 -35.421875 C 12.75 -39.640625 17.992188 -41.75 24.109375 -41.75 C 30.546875 -41.75 35.78125 -39.890625 39.8125 -36.171875 C 43.84375 -32.453125 45.859375 -27.140625 45.859375 -20.234375 C 45.859375 -19.285156 45.832031 -18.65625 45.78125 -18.34375 Z M 16.765625 -26.09375 L 32.171875 -26.09375 C 31.859375 -28.195312 31.03125 -29.816406 29.6875 -30.953125 C 28.34375 -32.085938 26.617188 -32.65625 24.515625 -32.65625 C 22.191406 -32.65625 20.34375 -32.046875 18.96875 -30.828125 C 17.601562 -29.617188 16.867188 -28.039062 16.765625 -26.09375 Z M 16.765625 -26.09375 "/></g></g></g><g fill="#020202" fill-opacity="1"><g transform="translate(280.517948, 72.597062)"><g><path d="M 4.75 0 L 4.75 -68 L 18.734375 -68 L 18.734375 0 Z M 4.75 0 "/></g></g></g><g fill="#020202" fill-opacity="1"><g transform="translate(298.069824, 72.597062)"><g><path d="M 7.5 -5.015625 C 3.707031 -9.160156 1.8125 -14.234375 1.8125 -20.234375 C 1.8125 -26.242188 3.707031 -31.332031 7.5 -35.5 C 11.300781 -39.664062 16.128906 -41.75 21.984375 -41.75 C 27.359375 -41.75 31.785156 -40.0625 35.265625 -36.6875 L 35.265625 -40.5625 L 49.25 -40.5625 L 49.25 0 L 35.421875 0 L 35.421875 -4.578125 L 35.265625 -4.578125 C 31.785156 -0.734375 27.359375 1.1875 21.984375 1.1875 C 16.128906 1.1875 11.300781 -0.878906 7.5 -5.015625 Z M 19.40625 -27.125 C 17.59375 -25.332031 16.6875 -23.035156 16.6875 -20.234375 C 16.6875 -17.441406 17.554688 -15.160156 19.296875 -13.390625 C 21.035156 -11.628906 23.328125 -10.75 26.171875 -10.75 C 28.910156 -10.75 31.160156 -11.644531 32.921875 -13.4375 C 34.691406 -15.226562 35.578125 -17.492188 35.578125 -20.234375 C 35.578125 -23.035156 34.664062 -25.332031 32.84375 -27.125 C 31.03125 -28.914062 28.804688 -29.8125 26.171875 -29.8125 C 23.484375 -29.8125 21.226562 -28.914062 19.40625 -27.125 Z M 19.40625 -27.125 "/></g></g></g><g fill="#020202" fill-opacity="1"><g transform="translate(346.141481, 72.597062)"><g><path d="M 4.75 0 L 4.75 -40.5625 L 18.734375 -40.5625 L 18.734375 -36.296875 L 18.890625 -36.296875 C 22.523438 -39.929688 26.398438 -41.75 30.515625 -41.75 C 32.515625 -41.75 34.503906 -41.484375 36.484375 -40.953125 C 38.460938 -40.421875 40.359375 -39.601562 42.171875 -38.5 C 43.992188 -37.394531 45.472656 -35.828125 46.609375 -33.796875 C 47.742188 -31.765625 48.3125 -29.40625 48.3125 -26.71875 L 48.3125 0 L 34.3125 0 L 34.3125 -22.921875 C 34.3125 -25.035156 33.640625 -26.878906 32.296875 -28.453125 C 30.953125 -30.035156 29.203125 -30.828125 27.046875 -30.828125 C 24.929688 -30.828125 23.015625 -30.007812 21.296875 -28.375 C 19.585938 -26.75 18.734375 -24.929688 18.734375 -22.921875 L 18.734375 0 Z M 4.75 0 "/></g></g></g><g fill="#020202" fill-opacity="1"><g transform="translate(392.473649, 72.597062)"><g><path d="M 6.078125 -63.171875 C 7.710938 -64.804688 9.664062 -65.625 11.9375 -65.625 C 14.207031 -65.625 16.15625 -64.804688 17.78125 -63.171875 C 19.414062 -61.535156 20.234375 -59.582031 20.234375 -57.3125 C 20.234375 -55.050781 19.414062 -53.101562 17.78125 -51.46875 C 16.15625 -49.832031 14.207031 -49.015625 11.9375 -49.015625 C 9.664062 -49.015625 7.710938 -49.832031 6.078125 -51.46875 C 4.453125 -53.101562 3.640625 -55.050781 3.640625 -57.3125 C 3.640625 -59.582031 4.453125 -61.535156 6.078125 -63.171875 Z M 4.75 -40.5625 L 4.75 0 L 18.734375 0 L 18.734375 -40.5625 Z M 4.75 -40.5625 "/></g></g></g></g></g><path fill="#4ebf66" d="M 562.527344 66.09375 C 562.527344 66.09375 565.085938 63.523438 570.488281 67.636719 C 575.886719 71.753906 580.578125 78.832031 578.730469 80.757812 C 576.882812 82.691406 569.207031 77.671875 569.207031 77.671875 C 569.207031 77.671875 558.265625 72.398438 562.527344 66.09375 " fill-opacity="1" fill-rule="nonzero"/><path fill="#4ebf66" d="M 589.816406 18.753906 C 589.816406 18.753906 592.234375 18.238281 593.226562 23.511719 C 594.222656 28.789062 593.226562 47.441406 593.226562 47.441406 C 593.226562 47.441406 593.371094 51.042969 591.09375 51.042969 C 588.820312 51.042969 588.539062 44.996094 588.539062 44.996094 C 588.539062 44.996094 587.714844 32.144531 587.542969 30.84375 C 587.4375 30.039062 585.695312 21.070312 589.816406 18.753906 " fill-opacity="1" fill-rule="nonzero"/><path fill="#4ebf66" d="M 609.4375 15.269531 C 609.4375 15.269531 612.269531 15.089844 612.324219 21.207031 C 612.378906 27.328125 607.472656 48.21875 607.472656 48.21875 C 607.472656 48.21875 606.902344 52.308594 604.335938 51.929688 C 601.769531 51.550781 602.671875 44.679688 602.671875 44.679688 C 602.671875 44.679688 604.332031 29.46875 604.417969 28.539062 C 604.640625 26.21875 604.316406 17.195312 609.4375 15.269531 " fill-opacity="1" fill-rule="nonzero"/><path fill="#4ebf66" d="M 624.214844 22.199219 C 624.214844 22.199219 626.984375 21.074219 625.929688 27.886719 C 625.074219 33.390625 617.578125 51.566406 617.578125 51.566406 C 617.578125 51.566406 616.457031 55.171875 614.210938 54.519531 C 611.957031 53.871094 613.789062 47.808594 613.789062 47.808594 C 613.789062 47.808594 617.390625 34.285156 617.742188 33.519531 C 618.367188 32.152344 620.792969 22.132812 624.214844 22.199219 " fill-opacity="1" fill-rule="nonzero"/><path fill="#4ebf66" d="M 638.472656 39.691406 C 638.472656 39.691406 640.648438 40.566406 639.019531 44.296875 C 637.390625 48.027344 628.003906 59 628.003906 59 C 628.003906 59 626.457031 61.28125 624.632812 60.160156 C 622.808594 59.039062 625.363281 55.183594 625.363281 55.183594 C 625.363281 55.183594 630.953125 46.613281 631.078125 46 C 631.207031 45.386719 634.097656 39.082031 638.472656 39.691406 " fill-opacity="1" fill-rule="nonzero"/><path fill="#4ebf66" d="M 587.96875 57.476562 C 587.96875 57.476562 590.34375 52.375 601.472656 55.417969 C 615.46875 59.242188 615.1875 59.410156 616.394531 59.792969 C 618.542969 60.472656 627.480469 63.007812 621.9375 75.488281 C 616.394531 87.964844 612.273438 98.128906 597.066406 95.425781 C 581.859375 92.726562 583.847656 82.304688 583.847656 82.304688 C 583.847656 82.304688 584.160156 78.152344 591.097656 75.042969 C 599 71.5 591.382812 67.125 591.382812 67.125 C 591.382812 67.125 585.695312 63.136719 587.96875 57.476562 " fill-opacity="1" fill-rule="nonzero"/><g clip-path="url(#5368210269)"><path fill="#4ebf66" d="M 563.042969 66.9375 C 563.066406 66.914062 563.09375 66.894531 563.117188 66.875 C 563.03125 66.945312 563.066406 66.910156 563.226562 66.808594 C 563.542969 66.609375 563.773438 66.539062 564.203125 66.445312 C 565.675781 66.132812 567.25 66.867188 568.480469 67.585938 C 570.425781 68.722656 572.121094 70.351562 573.648438 72 C 575.003906 73.460938 576.222656 75.066406 577.191406 76.808594 C 577.714844 77.75 578.496094 79.160156 578.15625 80.273438 C 577.964844 80.902344 576.574219 80.546875 575.992188 80.386719 C 573.761719 79.773438 571.652344 78.535156 569.710938 77.304688 C 568.277344 76.398438 566.804688 75.652344 565.496094 74.546875 C 564.332031 73.570312 563.292969 72.433594 562.660156 71.039062 C 562.003906 69.585938 562.328125 68.058594 563.175781 66.769531 C 563.769531 65.867188 562.320312 65.027344 561.730469 65.925781 C 558.351562 71.074219 563.667969 75.808594 567.839844 78.183594 C 568.921875 78.800781 569.988281 79.453125 571.082031 80.050781 C 572.320312 80.730469 573.605469 81.34375 574.9375 81.808594 C 575.996094 82.179688 577.289062 82.511719 578.390625 82.132812 C 580.535156 81.402344 579.914062 78.75 579.238281 77.191406 C 578.007812 74.351562 575.917969 71.855469 573.742188 69.691406 C 571.488281 67.449219 568.75 65.183594 565.5 64.753906 C 564.292969 64.597656 562.765625 64.867188 561.863281 65.757812 C 561.089844 66.515625 562.273438 67.695312 563.042969 66.9375 " fill-opacity="1" fill-rule="nonzero"/></g><path fill="#4ebf66" d="M 589.964844 19.8125 C 589.488281 19.90625 590.226562 19.863281 589.953125 19.820312 C 590.300781 19.875 590.425781 19.941406 590.691406 20.167969 C 591.8125 21.125 592.171875 22.910156 592.398438 24.285156 C 592.808594 26.785156 592.75 29.410156 592.757812 31.9375 C 592.773438 37.066406 592.59375 42.203125 592.335938 47.324219 C 592.316406 47.679688 592.320312 48.039062 592.292969 48.390625 C 592.25 48.960938 591.867188 50.871094 590.898438 50.449219 C 589.964844 50.039062 589.730469 48.285156 589.5625 47.429688 C 589.421875 46.710938 589.34375 45.980469 589.296875 45.246094 C 589.015625 40.875 588.75 36.5 588.398438 32.128906 C 588.269531 30.5 587.957031 28.898438 587.875 27.261719 C 587.753906 24.832031 587.761719 21.144531 590.164062 19.730469 C 591.089844 19.179688 590.25 17.734375 589.320312 18.285156 C 586.726562 19.8125 586.222656 23.132812 586.175781 25.882812 C 586.15625 27.167969 586.261719 28.457031 586.429688 29.730469 C 586.480469 30.148438 586.542969 30.570312 586.609375 30.988281 C 586.625 31.089844 586.640625 31.191406 586.65625 31.292969 C 586.605469 30.929688 586.660156 31.371094 586.667969 31.457031 C 587.097656 35.96875 587.320312 40.507812 587.609375 45.03125 C 587.722656 46.773438 587.921875 48.589844 588.644531 50.195312 C 589.140625 51.308594 590.035156 52.273438 591.351562 52.105469 C 592.785156 51.921875 593.542969 50.683594 593.828125 49.375 C 594.070312 48.265625 594.023438 47.019531 594.074219 45.886719 C 594.195312 43.285156 594.289062 40.6875 594.351562 38.089844 C 594.460938 33.8125 594.59375 29.480469 594.183594 25.214844 C 593.988281 23.15625 593.550781 20.976562 592.214844 19.339844 C 591.589844 18.570312 590.53125 18 589.519531 18.199219 C 588.460938 18.410156 588.910156 20.023438 589.964844 19.8125 " fill-opacity="1" fill-rule="nonzero"/><g clip-path="url(#09ae332238)"><path fill="#4ebf66" d="M 609.363281 16.359375 C 609.632812 16.34375 609.207031 16.308594 609.472656 16.367188 C 609.726562 16.421875 609.835938 16.476562 610.019531 16.625 C 610.992188 17.421875 611.226562 18.914062 611.34375 20.078125 C 611.597656 22.589844 611.15625 25.175781 610.769531 27.648438 C 609.855469 33.488281 608.609375 39.28125 607.320312 45.046875 C 607.078125 46.125 606.753906 47.210938 606.582031 48.304688 C 606.441406 49.195312 606.15625 50.179688 605.558594 50.871094 C 604.765625 51.796875 603.925781 51.3125 603.609375 50.339844 C 603.054688 48.632812 603.246094 46.652344 603.4375 44.894531 C 603.628906 43.167969 603.816406 41.441406 604.003906 39.714844 C 604.402344 36.027344 604.894531 32.335938 605.191406 28.636719 C 605.363281 26.550781 605.378906 24.476562 605.785156 22.410156 C 606.238281 20.09375 607.1875 17.277344 609.585938 16.328125 C 610.574219 15.9375 610.144531 14.316406 609.140625 14.714844 C 603.648438 16.890625 603.972656 23.957031 603.503906 28.816406 C 603.074219 33.289062 602.542969 37.753906 602.058594 42.222656 C 601.933594 43.355469 601.789062 44.492188 601.691406 45.632812 C 601.585938 46.820312 601.566406 48.027344 601.695312 49.21875 C 601.824219 50.367188 602.089844 51.757812 603.050781 52.519531 C 604.15625 53.398438 605.671875 53.082031 606.640625 52.160156 C 607.472656 51.371094 607.902344 50.140625 608.136719 49.046875 C 608.351562 48.0625 608.578125 47.078125 608.796875 46.09375 C 610.078125 40.417969 611.292969 34.714844 612.238281 28.972656 C 612.636719 26.5625 613.054688 24.101562 613.085938 21.65625 C 613.113281 19.265625 612.738281 15.871094 610.179688 14.835938 C 609.933594 14.734375 609.628906 14.671875 609.363281 14.6875 C 608.289062 14.742188 608.285156 16.414062 609.363281 16.359375 " fill-opacity="1" fill-rule="nonzero"/></g><path fill="#4ebf66" d="M 624.359375 23.261719 C 624.445312 23.226562 624.726562 23.1875 624.410156 23.230469 C 624.496094 23.21875 624.582031 23.21875 624.671875 23.226562 C 624.449219 23.210938 624.800781 23.3125 624.707031 23.261719 C 624.660156 23.234375 624.847656 23.378906 624.820312 23.34375 C 624.917969 23.472656 624.988281 23.613281 625.035156 23.75 C 625.265625 24.390625 625.265625 25.097656 625.253906 25.773438 C 625.199219 28.445312 624.328125 31.046875 623.503906 33.566406 C 621.714844 39.019531 619.609375 44.378906 617.460938 49.703125 C 617.0625 50.691406 616.714844 51.761719 616.214844 52.675781 C 615.871094 53.300781 614.636719 54.769531 614.035156 53.609375 C 613.53125 52.644531 613.898438 51.074219 614.089844 50.070312 C 614.320312 48.851562 614.6875 47.652344 615.007812 46.453125 C 615.691406 43.90625 616.378906 41.355469 617.078125 38.8125 C 617.464844 37.410156 617.84375 36.003906 618.265625 34.609375 C 618.3125 34.453125 618.363281 34.296875 618.414062 34.144531 C 618.441406 34.070312 618.519531 33.886719 618.386719 34.195312 C 618.449219 34.054688 618.507812 33.917969 618.5625 33.777344 C 618.78125 33.203125 618.953125 32.605469 619.144531 32.019531 C 619.738281 30.179688 620.363281 28.339844 621.207031 26.59375 C 621.726562 25.523438 622.730469 23.304688 624.136719 23.289062 C 625.214844 23.277344 625.21875 21.605469 624.136719 21.617188 C 621.535156 21.644531 620.105469 24.894531 619.238281 26.898438 C 618.660156 28.242188 618.171875 29.625 617.714844 31.011719 C 617.542969 31.523438 617.382812 32.039062 617.214844 32.550781 C 617.15625 32.738281 617.09375 32.925781 617.027344 33.113281 C 616.988281 33.222656 616.851562 33.5625 616.9375 33.367188 C 616.1875 35.085938 615.828125 37.046875 615.332031 38.84375 C 614.648438 41.339844 613.976562 43.839844 613.304688 46.339844 C 612.972656 47.578125 612.613281 48.8125 612.394531 50.078125 C 612.175781 51.351562 612.003906 52.769531 612.410156 54.027344 C 612.839844 55.34375 614.140625 55.953125 615.457031 55.566406 C 617.164062 55.066406 617.835938 53.195312 618.4375 51.714844 C 619.167969 49.941406 619.878906 48.15625 620.578125 46.371094 C 622.601562 41.214844 624.667969 36.015625 626.132812 30.667969 C 626.417969 29.636719 626.640625 28.601562 626.773438 27.542969 C 626.953125 26.117188 627.125 24.472656 626.570312 23.101562 C 626.160156 22.082031 625.070312 21.191406 623.914062 21.648438 C 622.925781 22.039062 623.355469 23.65625 624.359375 23.261719 " fill-opacity="1" fill-rule="nonzero"/><g clip-path="url(#8f0cdf1b1d)"><path fill="#4ebf66" d="M 638.175781 40.75 C 637.859375 40.617188 638.261719 40.847656 638.371094 40.964844 C 638.695312 41.3125 638.726562 41.910156 638.703125 42.398438 C 638.632812 43.710938 637.832031 44.964844 637.144531 46.046875 C 635.53125 48.582031 633.640625 50.953125 631.765625 53.292969 C 630.378906 55.03125 628.964844 56.742188 627.527344 58.4375 C 627.109375 58.925781 626.910156 59.28125 626.292969 59.667969 C 625.863281 59.9375 624.996094 60.035156 624.785156 59.433594 C 624.578125 58.855469 624.898438 58.105469 625.105469 57.570312 C 625.554688 56.402344 626.347656 55.34375 627.027344 54.292969 C 628.296875 52.332031 629.5625 50.367188 630.777344 48.371094 C 631.523438 47.148438 631.90625 46.046875 632.574219 44.886719 C 633.773438 42.800781 635.742188 40.46875 638.398438 40.78125 C 639.46875 40.90625 639.453125 39.230469 638.398438 39.105469 C 635.238281 38.738281 632.792969 41.328125 631.28125 43.785156 C 630.855469 44.476562 630.398438 45.261719 630.191406 46.054688 C 630.226562 45.914062 630.21875 45.996094 630.132812 46.160156 C 630.054688 46.3125 629.96875 46.457031 629.882812 46.605469 C 629.609375 47.082031 629.324219 47.546875 629.039062 48.011719 C 627.714844 50.164062 626.339844 52.285156 624.964844 54.40625 C 624.019531 55.859375 622.902344 57.582031 623.082031 59.382812 C 623.246094 61.042969 624.945312 61.875 626.464844 61.417969 C 627.113281 61.222656 627.679688 60.773438 628.144531 60.296875 C 628.308594 60.128906 628.449219 59.9375 628.59375 59.75 C 628.75 59.546875 628.421875 59.953125 628.558594 59.796875 C 629.8125 58.324219 631.046875 56.832031 632.257812 55.332031 C 634.210938 52.921875 636.136719 50.484375 637.894531 47.933594 C 639.332031 45.847656 641.253906 42.945312 639.976562 40.371094 C 639.699219 39.808594 639.191406 39.375 638.621094 39.136719 C 637.625 38.71875 637.195312 40.339844 638.175781 40.75 " fill-opacity="1" fill-rule="nonzero"/></g><g clip-path="url(#c78acc0090)"><path fill="#4ebf66" d="M 618.417969 81.128906 C 615.835938 86.660156 612.6875 92.851562 606.386719 94.707031 C 602.753906 95.777344 598.746094 95.316406 595.132812 94.429688 C 592.082031 93.679688 589.066406 92.355469 586.925781 89.988281 C 585.671875 88.601562 584.894531 86.859375 584.609375 85.019531 C 584.550781 84.652344 584.511719 83.898438 584.53125 83.359375 C 584.539062 83.183594 584.550781 83.007812 584.570312 82.832031 C 584.59375 82.605469 584.53125 83.054688 584.578125 82.785156 C 584.691406 82.160156 584.542969 82.933594 584.613281 82.558594 C 584.667969 82.265625 584.765625 81.980469 584.871094 81.707031 C 585.25 80.714844 586.039062 79.746094 586.832031 78.972656 C 588.394531 77.449219 590.335938 76.609375 592.25 75.625 C 593.621094 74.921875 595.074219 73.789062 595.382812 72.191406 C 595.824219 69.929688 593.832031 68.066406 592.144531 66.917969 C 592.007812 66.828125 591.871094 66.738281 591.726562 66.65625 C 591.6875 66.632812 591.652344 66.601562 591.617188 66.574219 C 591.828125 66.730469 591.417969 66.40625 591.351562 66.351562 C 590.457031 65.585938 589.695312 64.679688 589.101562 63.660156 C 588.253906 62.195312 587.992188 60.523438 588.390625 58.878906 C 588.460938 58.605469 588.527344 58.304688 588.667969 58.054688 C 588.699219 58.003906 588.730469 57.953125 588.765625 57.898438 C 588.878906 57.726562 588.867188 57.757812 588.855469 57.773438 C 589.914062 56.460938 591.679688 55.835938 593.398438 55.628906 C 597.652344 55.113281 601.902344 56.667969 605.9375 57.792969 C 608.484375 58.5 611.03125 59.207031 613.554688 59.996094 C 615.347656 60.550781 617.292969 61.105469 618.894531 61.988281 C 620.492188 62.867188 621.789062 64.207031 622.398438 65.949219 C 623.464844 69.011719 622.382812 72.484375 621.140625 75.316406 C 620.710938 76.296875 622.152344 77.148438 622.585938 76.160156 C 624.023438 72.875 625.171875 69.058594 624.011719 65.503906 C 623.292969 63.300781 621.644531 61.589844 619.640625 60.488281 C 617.941406 59.550781 615.933594 58.988281 614.082031 58.40625 C 611.609375 57.632812 609.113281 56.941406 606.621094 56.242188 C 602.5 55.09375 598.269531 53.613281 593.929688 53.90625 C 591.8125 54.050781 589.632812 54.679688 588.0625 56.167969 C 586.757812 57.40625 586.414062 59.285156 586.550781 61.027344 C 586.753906 63.679688 588.398438 66.097656 590.421875 67.742188 C 591.480469 68.605469 592.660156 69.222656 593.40625 70.429688 C 594.0625 71.496094 593.707031 72.4375 592.828125 73.246094 C 592.039062 73.96875 590.996094 74.378906 590.042969 74.828125 C 589.011719 75.316406 588.027344 75.90625 587.105469 76.574219 C 585.289062 77.902344 583.5 79.796875 583.007812 82.070312 C 582.976562 82.21875 582.867188 82.859375 582.964844 82.335938 C 582.941406 82.472656 582.925781 82.605469 582.910156 82.738281 C 582.855469 83.148438 582.84375 83.566406 582.851562 83.976562 C 582.890625 85.675781 583.34375 87.339844 584.117188 88.847656 C 587.144531 94.75 594.859375 96.691406 600.9375 96.960938 C 605.261719 97.152344 609.402344 95.953125 612.660156 93.050781 C 615.96875 90.105469 618.019531 85.921875 619.863281 81.972656 C 620.316406 81.003906 618.875 80.152344 618.417969 81.128906 " fill-opacity="1" fill-rule="nonzero"/></g><path fill="#4ebf66" d="M 620.316406 77.171875 C 620.023438 77.832031 619.726562 78.496094 619.429688 79.15625 C 619.242188 79.570312 619.304688 80.050781 619.730469 80.300781 C 620.09375 80.511719 620.6875 80.414062 620.875 80 C 621.171875 79.339844 621.46875 78.679688 621.761719 78.015625 C 621.945312 77.601562 621.886719 77.121094 621.460938 76.871094 C 621.101562 76.660156 620.503906 76.753906 620.316406 77.171875 " fill-opacity="1" fill-rule="nonzero"/></svg>